<svg xmlns="http://www.w3.org/2000/svg" width="256" height="256" viewBox="0 0 100 100"><rect width="100" height="100" rx="20" fill="#000000"></rect><path fill="#fff" d="M47.24 72.08L37.40 72.08L37.40 28.28L47.24 28.28L47.24 72.08ZM18.92 72.08L9.08 72.08L9.08 28.28L18.92 28.28L18.92 72.08ZM39.14 54.38L17.18 54.38L17.18 45.74L39.14 45.74L39.14 54.38ZM73.10 59.54L65.72 59.54L65.72 51.02L73.58 51.02Q75.86 51.02 77.51 50.12Q79.16 49.22 80.06 47.57Q80.96 45.92 80.96 43.76L80.96 43.76Q80.96 41.48 80.06 39.83Q79.16 38.18 77.51 37.31Q75.86 36.44 73.58 36.44L73.58 36.44L65.72 36.44L65.72 27.92L73.10 27.92Q78.68 27.92 82.67 29.78Q86.66 31.64 88.79 35.06Q90.92 38.48 90.92 43.28L90.92 43.28L90.92 44.24Q90.92 48.92 88.79 52.37Q86.66 55.82 82.67 57.68Q78.68 59.54 73.10 59.54L73.10 59.54ZM66.92 72.08L57.08 72.08L57.08 27.92L66.92 27.92L66.92 72.08Z"></path></svg>